<svg width="16" height="16" viewBox="0 0 16 16" fill="none" xmlns="http://www.w3.org/2000/svg">
<g id="OpenEye">
<path id="Vector (Stroke)" fill-rule="evenodd" clip-rule="evenodd" d="M1.90002 5.19314C3.16849 3.93735 5.16161 2.66666 8 2.66666C10.8384 2.66666 12.8315 3.93735 14.1 5.19314C14.7322 5.81903 15.188 6.44388 15.4866 6.91349C15.6363 7.14879 15.7474 7.34661 15.8223 7.48817C15.8598 7.559 15.8883 7.61589 15.908 7.65651C15.9179 7.67682 15.9256 7.69308 15.9312 7.705L15.938 7.71959L15.9401 7.72438L15.9409 7.72614L15.9412 7.72685C15.9414 7.72717 15.9415 7.72746 15.3333 8.0005C15.9415 8.27358 15.9414 8.27388 15.9412 8.27419L15.9409 8.27491L15.9401 8.27666L15.9379 8.28145L15.9312 8.29604C15.9256 8.30795 15.9179 8.32421 15.908 8.34452C15.8883 8.38514 15.8598 8.44202 15.8223 8.51283C15.7474 8.65436 15.6363 8.85214 15.4866 9.08741C15.1879 9.55692 14.7321 10.1816 14.0999 10.8074C12.8314 12.0629 10.8383 13.3333 8 13.3333C5.16166 13.3333 3.16856 12.0629 1.90007 10.8074C1.26785 10.1816 0.81206 9.55692 0.513391 9.08741C0.363735 8.85214 0.252588 8.65436 0.177687 8.51283C0.140211 8.44202 0.111733 8.38514 0.0919767 8.34452C0.0820962 8.32421 0.0743898 8.30795 0.0688232 8.29604L0.0620713 8.28145L0.0598891 8.27666L0.0590949 8.27491L0.0587718 8.27419C0.0586309 8.27388 0.0584981 8.27358 0.666667 8.0005C0.0584759 7.72746 0.0586087 7.72717 0.0587496 7.72685L0.0590726 7.72614L0.0598666 7.72438L0.0620485 7.71959L0.0687998 7.705C0.0743659 7.69308 0.0820718 7.67682 0.0919519 7.65651C0.111707 7.61589 0.140184 7.559 0.177659 7.48817C0.252558 7.34661 0.363702 7.14879 0.513356 6.91349C0.81202 6.44388 1.26781 5.81903 1.90002 5.19314ZM0.666667 8.0005L0.0584759 7.72746C-0.0194997 7.90115 -0.0194917 8.0999 0.0584981 8.27358L0.666667 8.0005ZM1.41664 8.00046C1.47322 8.10206 1.54691 8.22795 1.6384 8.37176C1.89627 8.77715 2.29167 9.31898 2.83803 9.85976C3.92668 10.9373 5.60024 12 8 12C10.3998 12 12.0733 10.9373 13.162 9.85976C13.7083 9.31898 14.1037 8.77715 14.3616 8.37176C14.4531 8.22795 14.5268 8.10206 14.5834 8.00046C14.5268 7.89882 14.4531 7.77289 14.3616 7.62902C14.1037 7.22353 13.7083 6.68158 13.1619 6.14068C12.0733 5.06289 10.3997 3.99999 8 3.99999C5.60029 3.99999 3.92675 5.06289 2.83808 6.14068C2.29172 6.68158 1.89631 7.22353 1.63843 7.62902C1.54693 7.77289 1.47322 7.89883 1.41664 8.00046ZM15.3333 8.0005L15.9415 8.27358C16.0195 8.0999 16.0195 7.90115 15.9415 7.72746L15.3333 8.0005ZM1.27424 8.27491C1.27415 8.27509 1.27419 8.275 1.27436 8.27464L1.27424 8.27491ZM8 6.66666C7.26362 6.66666 6.66667 7.26361 6.66667 7.99999C6.66667 8.73637 7.26362 9.33332 8 9.33332C8.73638 9.33332 9.33333 8.73637 9.33333 7.99999C9.33333 7.26361 8.73638 6.66666 8 6.66666ZM5.33333 7.99999C5.33333 6.52723 6.52724 5.33332 8 5.33332C9.47276 5.33332 10.6667 6.52723 10.6667 7.99999C10.6667 9.47275 9.47276 10.6667 8 10.6667C6.52724 10.6667 5.33333 9.47275 5.33333 7.99999Z" fill="currentColor"/>
</g>
</svg>
